<?xml version="1.0" encoding="UTF-8"?>
<svg width="60px" height="71px" viewBox="0 0 60 71" version="1.1" xmlns="http://www.w3.org/2000/svg" xmlns:xlink="http://www.w3.org/1999/xlink">
    <!-- Generator: Sketch 60.1 (88133) - https://sketch.com -->
    <title>Group 2</title>
    <desc>Created with Sketch.</desc>
    <g id="Page-1" stroke="none" stroke-width="1" fill="none" fill-rule="evenodd">
        <g id="footer-5-responsive" transform="translate(-1192.000000, -595.000000)">
            <g id="Group-2" transform="translate(1192.000000, 595.000000)">
                <path d="M7.88117647,64.1915191 C7.88117647,62.7509321 7.65,61.7335395 7.18764706,61.1395175 C6.72529412,60.5454956 5.97229412,60.2476921 4.92882353,60.2466354 C3.88517647,60.2466354 3.10111765,60.5601128 2.57647059,61.1870675 C2.05164706,61.8140222 1.78111765,62.8155648 1.76470588,64.1915191 L7.88117647,64.1915191 Z M41.1759,55.4034453 L41.1759,58.9962834 L44.9151353,58.9962834 L44.9170765,60.528448 L41.1776647,60.528448 L41.1776647,66.1391645 C41.1776647,67.4860605 41.2752529,68.3706655 41.4706059,68.7933316 C41.6664882,69.2159977 42.1339588,69.4273307 42.8698412,69.4273307 L44.9647235,69.2862659 L45.0827824,70.7411179 C44.2904294,70.8872899 43.4881941,70.9739365 42.6829588,71.0000009 C41.4593118,71.0000009 40.6122529,70.7023735 40.1416059,70.1071187 C39.6711353,69.511864 39.4357235,68.3770055 39.4357235,66.7028954 L39.4357235,60.528448 L37.7647235,60.528448 L37.7647235,58.9962834 L39.4341353,58.9962834 L39.4341353,55.4034453 L41.1759,55.4034453 Z M4.91647059,58.767304 C6.50117647,58.767304 7.68529412,59.2098706 8.46882353,60.09518 C9.25235294,60.9804894 9.64464706,62.3692998 9.64588235,64.2619634 L9.55058824,65.6004061 L1.78588235,65.6004061 C1.78588235,66.9001044 2.02111765,67.8623742 2.49176471,68.4868634 C2.96223529,69.1115287 3.78176471,69.4250061 4.95,69.4272955 C6.12052941,69.4272955 7.30941176,69.3802739 8.51647059,69.2864068 L9.19764706,69.2159625 L9.24529412,70.600194 C7.72623529,70.8294903 6.19323529,70.9554096 4.65705882,70.9770713 C2.96417647,70.973549 1.76470588,70.4839608 1.05882353,69.5083065 C0.352941176,68.5326523 0,67.0105259 0,64.9417514 C0,60.8255119 1.63870588,58.767304 4.91647059,58.767304 Z M21.1764353,58.7673568 C22.5105529,58.7673568 23.4793765,59.072557 24.0829059,59.6831334 C24.6864353,60.2937098 24.9859059,61.2487591 24.9811412,62.5484574 L24.9811412,68.4693052 C24.9811412,69.0557544 26.4458471,69.03286 26.4458471,69.03286 L26.3558471,70.587919 C25.1205529,70.587919 24.0899647,70.6918245 23.4740824,70.0965697 C22.1408471,70.6867173 20.6971412,70.9869863 19.2387882,70.9771241 C18.1577294,70.9771241 17.3341412,70.6719239 16.7682,70.0613475 C16.2022588,69.4507711 15.9199059,68.5742673 15.9211371,67.4320121 C15.9211371,66.2895808 16.2110824,65.4475947 16.7911412,64.906406 C17.3712,64.3652172 18.2805529,64.032896 19.5193765,63.9097945 L23.2129059,63.5575728 L23.2129059,62.5484574 C23.2129059,61.7499707 23.0404941,61.1788431 22.6958471,60.8348986 C22.3162588,60.4763368 21.8059059,60.2891309 21.2840824,60.3171326 L16.6482,60.3171326 L16.6482,58.7673568 L21.1764353,58.7673568 Z M31.7751,58.7674097 C32.7317471,58.7674097 36.0511588,59.0102666 36.0511588,59.0102666 L36.0511588,60.5459534 C34.3023353,60.4667035 32.8709824,60.3416648 31.8670412,60.3416648 C30.1565118,60.3416648 29.3016882,60.9363913 29.3029235,62.125668 C29.3029235,62.6740773 29.4988059,63.0613451 29.8905706,63.2879998 C30.2823353,63.5146545 31.1765118,63.7495864 32.5729235,63.9924433 C33.9681,64.2344197 34.9565118,64.5743137 35.5376294,65.0123014 C36.1189235,65.4501131 36.4086882,66.2720226 36.4074569,67.4778538 C36.4074569,68.6835088 36.0193941,69.5682899 35.2429235,70.1318447 C34.4662765,70.6952234 33.3335118,70.9752397 31.8441,70.9717503 C30.8717471,70.9717503 27.6264529,70.6194957 27.6264529,70.6194957 L27.7199824,69.0943755 C29.5852765,69.2704864 30.9335118,69.4062679 31.8441,69.4062679 C32.7546882,69.4062679 33.4482176,69.2616809 33.9264529,68.9730351 C34.4046882,68.6840372 34.6427471,68.1979711 34.6427471,67.516422 C34.6427471,66.8348729 34.4399824,66.3753997 34.0323353,66.1321905 C33.6246882,65.8891575 32.7299824,65.6584523 31.3499824,65.4383137 C29.9699824,65.2181751 28.9888059,64.8958922 28.4117471,64.473226 C27.8346882,64.050736 27.5399824,63.2686276 27.5399824,62.125668 C27.5399824,60.9828845 27.9441,60.1375523 28.7523353,59.5896714 C29.5605706,59.0419665 30.5664529,58.7674097 31.7751,58.7674097 Z M56.7776471,58.7673291 C57.6610588,58.8044986 58.5411176,58.8987179 59.4123529,59.0491166 L59.9770588,59.119561 L59.9062941,60.5531035 C58.9852941,60.4361659 58.0588235,60.3655455 57.1305882,60.3415944 C55.7962941,60.3415944 54.8906471,60.6587701 54.4129412,61.2927692 C53.9354118,61.9265923 53.6957647,63.1007235 53.6945294,64.8149868 C53.6945294,66.529074 53.9182941,67.7225774 54.3652941,68.395321 C54.8122941,69.0680646 55.7417647,69.4042602 57.1535294,69.4042602 L59.9292353,69.1931033 L60,70.6495402 C58.9184118,70.83023 57.8258824,70.9378338 56.7298235,70.9718232 C54.8947059,70.9718232 53.6281765,70.5021354 52.9305882,69.5629361 C52.2328235,68.6237368 51.8835882,67.0387389 51.8823529,64.8079424 C51.8823529,62.5771459 52.2589412,61.0120485 53.0117647,60.1128263 C53.7647647,59.2134281 55.02,58.7648737 56.7776471,58.7673291 Z M49.1346176,58.9961601 L49.1346176,70.8783611 L47.3699118,70.8871667 L47.3699118,58.9961601 L49.1346176,58.9961601 Z M13.8705529,55.433349 L13.8705529,70.8853175 L12.1058471,70.8853175 L12.1058471,55.433349 L13.8705529,55.433349 Z M23.2164353,64.8942543 L19.7346706,65.2216444 C19.0287882,65.2852205 18.5193176,65.4888047 18.2064353,65.8329253 C17.8933765,66.1768699 17.7364941,66.6782575 17.7352588,67.3369122 C17.7352588,68.7774992 18.3310235,69.4977927 19.5229059,69.4977927 C20.5970824,69.4969122 21.6634941,69.3141091 22.6764353,68.9569562 L23.2164353,68.7686937 L23.2164353,64.8942543 Z M49.1346176,55.4598536 L49.1346176,57.5027398 L47.3699118,57.5027398 L47.3699118,55.4598536 L49.1346176,55.4598536 Z" id="Combined-Shape" fill="#FFFFFF"></path>
                <g id="Group" transform="translate(6.000000, 0.000000)">
                    <path d="M47.400335,24.6971215 C47.400335,20.7310654 44.9371279,17.2634019 41.2306349,15.9140187 C41.393291,15.0782804 41.4782137,14.2420935 41.4782137,13.3713645 C41.4782137,5.99865421 35.4702711,-2.34479103e-13 28.0842446,-2.34479103e-13 C23.7702624,-2.34479103e-13 19.7568795,2.06579439 17.2348107,5.54646729 C15.99467,4.58601869 14.4723523,4.05981308 12.8835343,4.05981308 C8.96361129,4.05981308 5.77429288,7.24351402 5.77429288,11.1570841 C5.77429288,12.0219813 5.92886114,12.8496449 6.21867664,13.6306542 C2.53375127,14.9585047 -4.26325641e-14,18.5073645 -4.26325641e-14,22.4482991 C-4.26325641e-14,26.4349907 2.47488952,29.9179065 6.19845695,31.2578692 C6.04029408,32.0841869 5.95402342,32.936972 5.95402342,33.7996262 C5.95402342,41.1552897 11.9480369,47.1395888 19.3160903,47.1395888 C23.6408564,47.1395888 27.6519927,45.065271 30.1592337,41.5706916 C31.4074623,42.5490841 32.9338239,43.0860561 34.5168006,43.0860561 C38.4367237,43.0860561 41.6255927,39.9032523 41.6255927,35.9896822 C41.6255927,35.124785 41.4710245,34.2957757 41.181209,33.5147664 C44.8665837,32.1882617 47.400335,28.6380561 47.400335,24.6971215" id="Fill-1" fill="#FFFFFF"></path>
                    <path d="M18.6354957,20.3019364 L29.0072958,25.0225346 L39.4721064,15.8684411 C39.6235293,15.1134505 39.6976682,14.3602542 39.6976682,13.5725159 C39.6976682,7.13154393 34.4499858,1.89146916 27.9985581,1.89146916 C24.1392941,1.89146916 20.5392914,3.78859065 18.3510721,6.9696 L16.6108312,15.9855252 L18.6354957,20.3019364 Z" id="Fill-4" fill="#FFD106"></path>
                    <path d="M7.8993369,31.267514 C7.74791392,32.0225047 7.67018047,32.805757 7.67018047,33.5984299 C7.67018047,40.056 12.93314,45.3104299 19.4020914,45.3104299 C23.2932575,45.3104299 26.910784,43.3953645 29.0949593,40.1816075 L30.8230685,31.1961869 L28.5171256,26.7976822 L18.1044369,22.0591402 L7.8993369,31.267514 Z" id="Fill-6" fill="#21BAB0"></path>
                    <path d="M7.83364539,13.3474093 L14.9415389,15.0229234 L16.498904,6.95443738 C15.5279098,6.21335327 14.3286577,5.80782056 13.0952569,5.80782056 C10.0065876,5.80782056 7.494404,8.31682991 7.494404,11.4009421 C7.494404,12.0823626 7.60808357,12.7355215 7.83364539,13.3474093" id="Fill-8" fill="#EE4F97"></path>
                    <path d="M7.21658552,15.0375477 C4.0407469,16.0881645 1.83275724,19.1274168 1.83275724,22.4703701 C1.83275724,25.7253981 3.84933388,28.632314 6.87599615,29.7825196 L16.8483451,20.7831925 L15.0173402,16.8772486 L7.21658552,15.0375477 Z" id="Fill-10" fill="#14A7DF"></path>
                    <path d="M30.9184155,40.1812037 C31.8934537,40.9294654 33.0864151,41.3372411 34.3045389,41.3372411 C37.3932082,41.3372411 39.9053918,38.829129 39.9053918,35.7454654 C39.9053918,35.0653907 39.7917122,34.4122318 39.5661504,33.7998953 L32.4640981,32.1409794 L30.9184155,40.1812037 Z" id="Fill-12" fill="#91C73E"></path>
                    <path d="M32.363494,30.2822131 L40.1822217,32.1080075 C43.358959,31.0596336 45.5669487,28.0190355 45.5669487,24.675185 C45.5669487,21.4259888 43.5458788,18.5226617 40.5133752,17.3755963 L30.2871569,26.3201944 L32.363494,30.2822131 Z" id="Fill-14" fill="#0279A0"></path>
                </g>
            </g>
        </g>
    </g>
</svg>